<?xml version="1.0" encoding="UTF-8" standalone="no"?>
<!DOCTYPE svg PUBLIC "-//W3C//DTD SVG 1.1//EN" "http://www.w3.org/Graphics/SVG/1.1/DTD/svg11.dtd">
<svg width="100%" height="100%" viewBox="0 0 1080 1080" version="1.1" xmlns="http://www.w3.org/2000/svg" xmlns:xlink="http://www.w3.org/1999/xlink" xml:space="preserve" xmlns:serif="http://www.serif.com/" style="fill-rule:evenodd;clip-rule:evenodd;stroke-linejoin:round;stroke-miterlimit:2;">
    <circle cx="540" cy="540" r="540" style="fill:rgb(22,22,22);fill-opacity:0.75;"/>
    <g transform="matrix(1.07779,0,0,1.07779,-89.3412,-55.2157)">
        <path d="M284.329,473.569C284.329,477.665 281.003,480.991 276.906,480.991C272.81,480.991 269.484,477.665 269.484,473.569C269.484,433.742 288.891,388.607 304.803,352.942C307.5,346.896 313.882,329.629 322.228,322.181C327.942,317.081 334.431,315.444 341.369,318.913C346.533,321.496 350.74,326.56 353.906,332.76C357.639,340.07 360.021,348.978 362.051,354.777C371.351,381.347 379.37,408.168 390.821,433.932C392.485,437.675 390.796,442.065 387.053,443.729C383.309,445.393 378.919,443.704 377.255,439.961C365.64,413.827 357.472,386.633 348.039,359.681C346.183,354.378 344.1,346.197 340.686,339.513C339.086,336.38 337.339,333.496 334.73,332.191C333.889,331.771 333.201,332.36 332.497,332.929C331.583,333.669 330.728,334.622 329.901,335.687C324.288,342.915 320.335,354.564 318.361,358.99C303.229,392.906 284.329,435.696 284.329,473.569Z" style="fill:rgb(255,71,209);"/>
    </g>
    <g transform="matrix(1.07779,0,0,1.07779,-89.3412,-55.2157)">
        <path d="M657.556,353.567C656.446,354.502 655.048,355.743 654.105,356.809C650.159,361.266 646.662,366.523 645.371,368.114C638.013,377.184 614.252,402.509 600.669,422.014C597.47,426.608 594.856,430.831 593.301,434.374C592.663,435.827 592.149,437.043 592.149,438.051C592.149,442.148 588.823,445.474 584.726,445.474C580.629,445.474 577.303,442.148 577.303,438.051C577.303,432.66 581.474,423.601 588.487,413.531C602.28,393.722 626.371,367.971 633.843,358.761C635.943,356.174 643.464,345.054 649.925,340.502C655.887,336.303 661.62,336.426 665.829,340.139C669.894,343.727 672.549,350.358 673.747,358.075C675.088,366.71 674.882,376.789 675.682,382.253C680.342,414.097 686.409,445.69 691.301,477.492C691.924,481.541 689.143,485.334 685.094,485.957C681.045,486.579 677.252,483.798 676.629,479.749C671.73,447.911 665.658,416.282 660.993,384.402C660.197,378.967 660.412,368.941 659.078,360.353C658.687,357.837 658.336,355.419 657.556,353.567Z" style="fill:rgb(255,71,209);"/>
    </g>
    <g transform="matrix(1.07779,0,0,1.07779,-89.3412,-55.2157)">
        <path d="M818.253,203.959C814.588,205.791 810.126,204.304 808.294,200.64C806.462,196.976 807.949,192.513 811.614,190.681C835.061,178.957 872.726,145.235 895.899,128.9C900.812,125.437 908.947,118.129 916.913,114.656C924.681,111.269 932.342,111.192 938.584,116.357C942.529,119.622 946.131,127.004 948.54,136.572C953.078,154.592 954.832,181.058 956.293,190.8C958.682,206.722 962.181,222.49 964.457,238.418C965.036,242.474 962.214,246.237 958.159,246.816C954.103,247.395 950.34,244.573 949.761,240.518C947.49,224.623 943.996,208.89 941.612,193.002C940.19,183.518 938.562,157.74 934.145,140.197C933.3,136.842 932.361,133.819 931.269,131.354C930.586,129.812 929.984,128.51 929.119,127.794C928.034,126.896 926.717,127.047 925.387,127.375C923.557,127.827 921.696,128.73 919.851,129.796C913.86,133.257 908.174,138.41 904.452,141.034C880.787,157.716 842.199,191.986 818.253,203.959Z" style="fill:rgb(0,249,255);"/>
    </g>
    <g transform="matrix(1.07779,0,0,1.07779,-89.3412,-55.2157)">
        <path d="M261.589,127.153C258.324,135.887 256.707,152.606 256.227,155.385C249.583,193.828 242.167,232.042 237.12,270.736C236.59,274.799 232.862,277.667 228.8,277.137C224.738,276.607 221.87,272.879 222.4,268.816C227.473,229.918 234.919,191.502 241.599,152.856C242.226,149.23 245.198,125.305 250.004,116.928C253.354,111.089 258.109,109.714 262.213,110.887C266.23,112.035 270.306,114.718 274.223,118.765C278.864,123.558 283.481,130.425 288.03,138.035C294.272,148.474 300.457,160.38 306.778,169.405C310.216,174.312 313.495,178.376 317.059,180.158C320.723,181.99 322.21,186.452 320.378,190.116C318.546,193.78 314.084,195.268 310.42,193.436C305.896,191.173 301.321,186.854 296.938,181.101C291.394,173.825 285.925,164.127 280.485,154.599C275.46,145.798 270.481,137.141 265.372,131.104C264.082,129.579 262.843,128.212 261.589,127.153Z" style="fill:rgb(0,249,255);"/>
    </g>
    <g transform="matrix(1.07779,0,0,1.07779,-89.3412,-55.2157)">
        <path d="M304.452,637.661C302.409,636.338 301.055,634.039 301.055,631.425C301.055,627.328 304.381,624.002 308.477,624.002C309.555,624.002 312.237,624.337 314.92,627.078C319.889,632.154 336.807,657.602 338.397,660.003C355.51,685.847 370.128,713.048 386.634,739.229C388.561,742.286 391.329,748.007 394.764,752.746C395.827,754.213 396.946,755.58 398.158,756.627C398.735,757.126 399.147,757.842 399.811,757.721C400.805,757.541 401.601,756.809 402.414,755.978C403.955,754.401 405.298,752.304 406.545,749.996C411.261,741.274 414.418,729.822 416.952,724.232C422.456,712.091 428.029,699.988 433.455,687.811C441.78,669.124 449.598,650 459.591,632.119C461.59,628.543 466.115,627.262 469.692,629.26C473.268,631.259 474.549,635.785 472.55,639.361C462.775,656.852 455.159,675.574 447.015,693.853C441.577,706.059 435.99,718.191 430.473,730.361C427.341,737.271 423.128,752.555 416.642,761.923C412.7,767.619 407.824,771.353 402.467,772.327C397.536,773.223 392.734,771.561 388.451,767.858C382.27,762.516 377.118,751.972 374.076,747.146C357.629,721.059 343.071,693.951 326.02,668.199C324.612,666.074 306.246,640.188 304.452,637.661Z" style="fill:rgb(0,249,255);"/>
    </g>
    <g transform="matrix(1.07779,0,0,1.07779,-89.3412,-55.2157)">
        <path d="M522.723,764.629C526.017,763.2 529.003,759.416 532.037,755.256C538.464,746.444 544.075,735.298 547.952,729.56C571.083,695.326 594.242,661.151 618.255,627.532C620.636,624.198 625.276,623.425 628.61,625.806C631.943,628.187 632.716,632.827 630.335,636.16C606.397,669.675 583.311,703.744 560.252,737.872C556.307,743.71 550.571,755.037 544.03,764.004C538.638,771.397 532.478,777.127 526.538,779.036C520.957,780.83 515.146,778.784 510.184,773.256C503.487,765.795 497.961,750.805 495.853,746.256C487.726,728.717 460.227,653.149 460.227,635.371C460.227,631.275 463.553,627.949 467.649,627.949C471.746,627.949 475.072,631.275 475.072,635.371C475.072,652.178 501.639,723.433 509.323,740.014C510.918,743.456 514.532,753.772 519.275,760.787C520.27,762.259 522.048,763.992 522.723,764.629Z" style="fill:rgb(255,71,209);"/>
    </g>
    <g transform="matrix(1.07779,0,0,1.07779,-89.3412,-55.2157)">
        <path d="M199.123,362.155C202.531,359.883 207.144,360.805 209.416,364.214C211.688,367.623 210.766,372.235 207.357,374.507C201.08,378.692 194.206,388.496 187.179,400.463C169.455,430.644 152.157,474.6 147.632,489.79C115.32,598.265 104.58,740.258 195.143,824.576C198.141,827.367 198.309,832.068 195.518,835.066C192.726,838.065 188.026,838.232 185.027,835.441C90.303,747.249 99.608,599.011 133.405,485.552C138.095,469.806 156.005,424.232 174.378,392.945C182.821,378.568 191.58,367.184 199.123,362.155Z" style="fill:rgb(255,71,209);"/>
    </g>
    <path d="M938.956,376.802C935.007,374.828 933.403,370.018 935.378,366.069C937.353,362.12 942.162,360.517 946.111,362.491C952.53,365.701 960.72,376.412 968.364,391.057C984.073,421.153 1000.03,467.93 1003.71,481.287C1023.84,554.485 1050.65,696.94 1038.4,771.064C1034.23,796.312 1024.45,821.735 1013.97,844.979C1012.15,849.003 1007.41,850.798 1003.39,848.982C999.362,847.167 997.568,842.426 999.383,838.401C1009.31,816.395 1018.67,792.36 1022.62,768.456C1034.58,696.07 1007.94,557.011 988.281,485.53C984.736,472.641 969.338,427.502 954.18,398.46C950.498,391.407 946.865,385.339 943.408,381.073C941.802,379.091 940.392,377.52 938.956,376.802Z" style="fill:rgb(0,249,255);"/>
    <g transform="matrix(1.07779,0,0,1.07779,-89.3412,-55.2157)">
        <path d="M808.291,591.576C806.387,595.063 802.041,596.445 798.459,594.654C794.795,592.822 793.307,588.359 795.139,584.695C796.671,581.633 800.394,578.365 805.607,575.829C813.943,571.774 826.489,568.754 830.983,567.426C864.902,557.404 899.784,555.767 934.958,557.024C939.052,557.17 942.257,560.612 942.111,564.706C941.965,568.8 938.522,572.006 934.428,571.859C900.861,570.66 867.559,572.099 835.19,581.663C831.633,582.713 822.595,584.847 815.242,587.799C813.165,588.633 811.237,589.521 809.701,590.494C809.188,590.819 808.463,591.43 808.291,591.576Z" style="fill:rgb(0,249,255);"/>
    </g>
    <g transform="matrix(1.07779,0,0,1.07779,-89.3412,-55.2157)">
        <path d="M832.589,724.17C831.229,725.884 829.128,726.984 826.772,726.984C822.676,726.984 819.35,723.658 819.35,719.562C819.35,716.485 821.498,712.065 827.803,710.039C836.572,707.22 858.641,706.877 860.238,706.877C895.698,706.877 928.444,707.989 955.438,733.183C958.433,735.978 958.595,740.679 955.8,743.674C953.005,746.669 948.304,746.831 945.309,744.036C921.272,721.601 891.814,721.722 860.238,721.722C859.12,721.722 846.71,721.823 837.68,723.094C835.928,723.34 833.761,723.868 832.589,724.17ZM833.862,721.763C834.115,721.03 834.195,720.276 834.195,719.562C834.195,720.328 834.078,721.067 833.862,721.763Z" style="fill:rgb(0,249,255);"/>
    </g>
    <g transform="matrix(1.07779,0,0,1.07779,-89.3412,-55.2157)">
        <path d="M246.65,596.378C250.747,596.378 254.073,599.704 254.073,603.8C254.073,607.897 250.747,611.223 246.65,611.223C235.882,611.223 226.892,609.622 218.151,608.397C206.674,606.789 195.674,605.886 180.634,611.902C176.831,613.424 172.507,611.571 170.986,607.767C169.465,603.964 171.317,599.64 175.121,598.119C190.309,592.044 202.088,591.695 213.642,592.881C223.906,593.935 233.965,596.378 246.65,596.378Z" style="fill:rgb(0,249,255);"/>
    </g>
    <g transform="matrix(1.07779,0,0,1.07779,-89.3412,-55.2157)">
        <path d="M253.916,543.227C257.58,545.059 259.068,549.521 257.236,553.186C255.404,556.85 250.941,558.337 247.277,556.505C236.285,551.009 223.302,549.651 210.126,549.514C195.814,549.365 181.261,550.711 168.354,550.711C164.257,550.711 160.931,547.385 160.931,543.289C160.931,539.192 164.257,535.866 168.354,535.866C195.273,535.866 229.016,530.777 253.916,543.227Z" style="fill:rgb(255,71,209);"/>
    </g>
    <g transform="matrix(1.07779,0,0,1.07779,-89.3412,-55.2157)">
        <path d="M245.335,647.681C249.432,647.681 252.758,651.007 252.758,655.104C252.758,659.2 249.432,662.526 245.335,662.526C226.054,662.526 208.461,662.319 195.347,678.284C192.747,681.45 188.066,681.909 184.9,679.308C181.735,676.708 181.276,672.027 183.876,668.861C200.141,649.06 221.422,647.681 245.335,647.681Z" style="fill:rgb(255,71,209);"/>
    </g>
    <g transform="matrix(1.07779,0,0,1.07779,-89.3412,-55.2157)">
        <path d="M830.233,652.962C829.98,656.831 826.758,659.895 822.826,659.895C818.729,659.895 815.403,656.569 815.403,652.473C815.403,647.69 817.876,643.466 822.286,640.241C828.593,635.628 839.704,633.202 844.201,632.466C870.641,628.14 900.39,629.331 926.856,632.746C930.919,633.27 933.792,636.994 933.268,641.057C932.743,645.12 929.019,647.993 924.956,647.469C899.866,644.231 871.664,643.015 846.598,647.117C844.191,647.511 839.221,648.447 834.858,650.222C833.463,650.79 832.129,651.434 831.049,652.224C830.785,652.417 830.42,652.774 830.233,652.962Z" style="fill:rgb(255,71,209);"/>
    </g>
</svg>
