<?xml version="1.0" encoding="UTF-8" standalone="no"?>
<!DOCTYPE svg PUBLIC "-//W3C//DTD SVG 1.1//EN" "http://www.w3.org/Graphics/SVG/1.1/DTD/svg11.dtd">
<svg width="100%" height="100%" viewBox="0 0 1920 1080" version="1.1" xmlns="http://www.w3.org/2000/svg" xmlns:xlink="http://www.w3.org/1999/xlink" xml:space="preserve" xmlns:serif="http://www.serif.com/" style="fill-rule:evenodd;clip-rule:evenodd;stroke-linecap:round;stroke-linejoin:round;stroke-miterlimit:1.5;">
    <g transform="matrix(0.750913,0,0,0.750913,181.625,128.775)">
        <path d="M-157.491,1028.24C-253.48,842.918 -104.587,176.196 105.851,-22.691C259.509,-167.915 467.662,-104.04 489.321,183.582C518.66,573.173 704.382,501.508 915.546,293.044C1080.23,130.471 839.251,-33.968 1036.57,-80.529C1233.89,-127.09 1396.74,61.307 1308.6,208.64C1220.46,355.973 1204.68,455.948 1405.94,487.519C1607.21,519.091 1809.79,317.824 1775.59,231.003C1741.39,144.182 1412.85,148.655 1511.51,-101.482C1610.17,-351.618 2050.85,136.75 2062.36,296.25C2073.87,455.751 1807.49,488.638 1741.72,574.143C1675.94,659.648 1521.38,812.572 1694.03,993.449C1866.69,1174.33 1953.84,1251.35 1656.21,1266.41C1358.59,1281.47 1426.01,804.613 1294.46,791.458C1162.91,778.304 1162.04,743.966 1182.64,520.143C1198.22,350.876 557.244,415.423 755.116,811.19C911.261,1123.5 1005.06,646.757 1156.33,937.804C1307.61,1228.85 778.136,1218.99 623.569,1215.7C469.001,1212.41 435.596,892.352 472.954,775.364C531.802,591.082 164.799,396.818 122.046,671.422C79.294,946.026 8.587,1348.89 -157.491,1028.24Z" style="fill:rgb(0,255,200);stroke:black;stroke-width:1.33px;"/>
    </g>
</svg>
